<?xml version="1.0" encoding="UTF-8"?>
<svg width="14px" height="14px" viewBox="0 0 14 14" version="1.1" xmlns="http://www.w3.org/2000/svg" xmlns:xlink="http://www.w3.org/1999/xlink">
    <title>Icon/Action/External</title>
    <defs>
        <path d="M7,1 L7,3 L3,3 L3,13 L13,13 L13,9.05 L15,9.05 L15,14 C15,14.5522847 14.5522847,15 14,15 L14,15 L2,15 C1.44771525,15 1,14.5522847 1,14 L1,14 L1,2 C1,1.44771525 1.44771525,1 2,1 L2,1 L7,1 Z M15,1 L15,7 L13,7 L13,4.414 L6.70710678,10.7071068 L5.29289322,9.29289322 L11.584,3 L9,3 L9,1 L15,1 Z" id="path-1"></path>
    </defs>
    <g id="homepage" stroke="none" stroke-width="1" fill="none" fill-rule="evenodd">
        <g transform="translate(-1021.000000, -387.000000)" id="Getting-started">
            <g transform="translate(866.000000, 362.000000)">
                <g id="Group" transform="translate(154.000000, 24.000000)">
                    <mask id="mask-2" fill="white">
                        <use xlink:href="#path-1"></use>
                    </mask>
                    <use id="Icon" fill="#16191F" xlink:href="#path-1"></use>
                </g>
            </g>
        </g>
    </g>
</svg>