<?xml version="1.0" encoding="UTF-8"?>
<svg width="40px" height="26px" viewBox="0 0 40 26" version="1.1" xmlns="http://www.w3.org/2000/svg" xmlns:xlink="http://www.w3.org/1999/xlink">
    <title>AWS Logo</title>
    <g id="homepage" stroke="none" stroke-width="1" fill="none" fill-rule="evenodd">
        <g transform="translate(-61.000000, -7.000000)" id="App-layout">
            <g transform="translate(1.000000, 0.000000)">
                <g id="AWS-Logo" transform="translate(60.000000, 7.500000)">
                    <path d="M11.7890625,9.2578125 C11.776655,9.64867453 11.8267655,10.0390092 11.9375,10.4140625 C12.0516313,10.7353107 12.1927605,11.0463176 12.359375,11.34375 C12.4161341,11.4327674 12.4484669,11.5351546 12.453125,11.640625 C12.4364309,11.801089 12.3433373,11.9436385 12.203125,12.0234375 L11.421875,12.5703125 C11.3207931,12.6413205 11.2015316,12.6819778 11.078125,12.6875 C10.9313729,12.6822453 10.7931159,12.6173492 10.6953125,12.5078125 C10.5138497,12.3282783 10.3563001,12.1260896 10.2265625,11.90625 C10.0963542,11.6875 9.96354167,11.4270833 9.828125,11.125 C8.90088906,12.2822695 7.49053805,12.9456247 6.0078125,12.921875 C5.0532707,12.9741834 4.11802963,12.6389614 3.4140625,11.9921875 C2.76145282,11.3283431 2.41591159,10.4220055 2.4609375,9.4921875 C2.41899021,8.47967313 2.83848598,7.50276517 3.6015625,6.8359375 C4.50616035,6.12357083 5.63936081,5.76527951 6.7890625,5.828125 C7.24921923,5.82946358 7.70870293,5.86340271 8.1640625,5.9296875 C8.64322917,5.99739583 9.140625,6.09114583 9.65625,6.2109375 L9.65625,5.2578125 C9.73211856,4.5108655 9.51034513,3.76413471 9.0390625,3.1796875 C8.43611419,2.71602578 7.67854256,2.50077481 6.921875,2.578125 C6.45061054,2.5805129 5.98125455,2.63819911 5.5234375,2.75 C5.0469985,2.86393016 4.57959027,3.01276965 4.125,3.1953125 C3.97804417,3.26284555 3.82665076,3.32027064 3.671875,3.3671875 L3.46875,3.3671875 C3.28645833,3.3671875 3.1953125,3.23177083 3.1953125,2.9609375 L3.1953125,2.34375 C3.18414043,2.18695046 3.21658844,2.03011844 3.2890625,1.890625 C3.38698071,1.77053535 3.51313804,1.6765884 3.65625,1.6171875 C4.17911373,1.36670075 4.7262332,1.17036601 5.2890625,1.03125 C5.95003878,0.861535925 6.63009355,0.777513714 7.3125,0.78125 C8.53990445,0.672469202 9.76078153,1.05136209 10.7109375,1.8359375 C11.4915234,2.70915774 11.8810476,3.86361704 11.7890625,5.03125 L11.7890625,9.2578125 Z M6.515625,11.234375 C6.97377522,11.2277065 7.42772508,11.1458899 7.859375,10.9921875 C8.3351934,10.8273783 8.75854921,10.5388492 9.0859375,10.15625 C9.28764155,9.93131324 9.43704932,9.66451365 9.5234375,9.375 C9.61338415,9.00694895 9.65539864,8.62881858 9.6484375,8.25 L9.6484375,7.703125 C9.25424766,7.60865257 8.85522416,7.53562866 8.453125,7.484375 C8.04892838,7.43266472 7.64186581,7.40657096 7.234375,7.40625 C6.55021572,7.35494266 5.86914004,7.53968789 5.3046875,7.9296875 C4.89180859,8.29393615 4.66508575,8.8248694 4.6875,9.375 C4.65016985,9.87941126 4.82258768,10.3768791 5.1640625,10.75 C5.53247507,11.084383 6.01868289,11.2586309 6.515625,11.234375 Z M16.9453125,12.640625 C16.7693046,12.6567153 16.5930417,12.6126495 16.4453125,12.515625 C16.3070093,12.3763344 16.2120333,12.1999504 16.171875,12.0078125 L13.1328125,1.9609375 C13.0738471,1.79151797 13.0345272,1.61588891 13.015625,1.4375 C13.0021924,1.34910668 13.0315878,1.25959254 13.0948089,1.19637144 C13.15803,1.13315034 13.2475442,1.10375489 13.3359375,1.1171875 L14.609375,1.1171875 C14.7879795,1.0992794 14.967303,1.14342058 15.1171875,1.2421875 C15.2464596,1.38572236 15.3354126,1.5609329 15.375,1.75 L17.5546875,10.34375 L19.578125,1.75 C19.6093634,1.56037511 19.6995746,1.38542007 19.8359375,1.25 C19.9925342,1.153368 20.1760129,1.10955219 20.359375,1.125 L21.40625,1.125 C21.5896121,1.10955219 21.7730908,1.153368 21.9296875,1.25 C22.0646508,1.3885561 22.1521821,1.56635409 22.1796875,1.7578125 L24.21875,10.4609375 L26.46875,1.7578125 C26.5102234,1.56781057 26.6019597,1.39243235 26.734375,1.25 C26.8842595,1.15123308 27.063583,1.1070919 27.2421875,1.125 L28.4453125,1.125 C28.5337058,1.11156739 28.62322,1.14096284 28.6864411,1.20418394 C28.7496622,1.26740504 28.7790576,1.35691918 28.765625,1.4453125 C28.772112,1.51286546 28.772112,1.58088454 28.765625,1.6484375 C28.7406728,1.75695163 28.7093689,1.86390662 28.671875,1.96875 L25.546875,12.015625 C25.5067167,12.2077629 25.4117407,12.3841469 25.2734375,12.5234375 C25.1257083,12.620462 24.9494454,12.6645278 24.7734375,12.6484375 L23.6328125,12.6484375 C23.4480932,12.6677939 23.2625201,12.6207082 23.109375,12.515625 C22.9753576,12.3702173 22.888241,12.1878168 22.859375,11.9921875 L20.8359375,3.625 L18.8359375,11.984375 C18.8070715,12.1800043 18.7199549,12.3624048 18.5859375,12.5078125 C18.4327924,12.6128957 18.2472193,12.6599814 18.0625,12.640625 L16.9453125,12.640625 Z M33.6328125,12.984375 C32.9596809,12.9854858 32.2886384,12.9094693 31.6328125,12.7578125 C31.1112119,12.6528092 30.6064986,12.4766853 30.1328125,12.234375 C29.8415068,12.1110117 29.6533499,11.8241495 29.6562169,11.5078125 L29.6562169,10.8515625 C29.6562169,10.5807292 29.7552083,10.4453125 29.953125,10.4453125 C30.0359857,10.4465434 30.1179764,10.4624126 30.1953125,10.4921875 L30.5234375,10.625 C30.9819832,10.8279024 31.4614173,10.9798542 31.953125,11.078125 C32.4672098,11.1837327 32.9908077,11.2360925 33.515625,11.234375 C34.1763363,11.2735298 34.8346076,11.1245384 35.4140625,10.8046875 C35.8447481,10.548764 36.1021541,10.0788485 36.0859375,9.578125 C36.094928,9.24113572 35.9682706,8.91464121 35.734375,8.671875 C35.340027,8.34140494 34.8748886,8.10616256 34.375,7.984375 L32.4921875,7.390625 C31.6993632,7.17033187 30.993146,6.71224509 30.46875,6.078125 C30.0499577,5.53970439 29.8218707,4.87742783 29.8203125,4.1953125 C29.8094168,3.69112273 29.930617,3.19285507 30.171875,2.75 C30.4053314,2.33341675 30.7217463,1.96914068 31.1015625,1.6796875 C31.4997769,1.376903 31.9498379,1.14922505 32.4296875,1.0078125 C32.9603419,0.854684772 33.5102011,0.778388521 34.0625,0.781172406 C34.3550286,0.78099234 34.64728,0.799258052 34.9375,0.8359375 C35.234375,0.872395833 35.515625,0.921875 35.78125,0.984375 C36.046875,1.046875 36.2942708,1.11458333 36.5234375,1.1875 C36.7120827,1.24666622 36.8950947,1.32248547 37.0703125,1.4140625 C37.218275,1.49383204 37.3485079,1.60280247 37.453125,1.734375 C37.5357254,1.86202005 37.5766715,2.01215579 37.5703125,2.1640625 L37.5703125,2.78125 C37.5703125,3.05208333 37.4713542,3.1875 37.2734375,3.1875 C37.0982978,3.16793948 36.9285512,3.11489365 36.7734375,3.03125 C35.9851092,2.68880412 35.1328352,2.51834932 34.2734375,2.53125 C33.6756793,2.5001761 33.0802566,2.62680445 32.546875,2.8984375 C32.1393796,3.13645045 31.9006626,3.5836671 31.9296875,4.0546875 C31.9218112,4.40217015 32.0607972,4.73687114 32.3125,4.9765625 C32.733615,5.31339689 33.2206446,5.55824237 33.7421875,5.6953125 L35.5859375,6.25 C36.3666933,6.45292727 37.0670718,6.88896056 37.59375,7.5 C38.0068106,8.03613715 38.2220662,8.69846226 38.203125,9.375 C38.2100107,9.89778164 38.0921701,10.4146731 37.859375,10.8828125 C37.6318642,11.3300292 37.3092071,11.7220175 36.9140625,12.03125 C36.4833552,12.3639019 35.9926647,12.6105733 35.46875,12.7578125 C34.8708484,12.9212192 34.2525021,12.9975257 33.6328125,12.984375 Z" id="Shape" fill="#252F3E" fill-rule="nonzero"></path>
                    <path d="M36.0859375,19.3828125 C31.8125,22.5390625 25.609375,24.21875 20.3125,24.21875 C13.165969,24.2658122 6.26032062,21.6378758 0.953125,16.8515625 C0.5546875,16.4921875 0.90625,16 1.390625,16.2734375 C7.27807556,19.6412217 13.9439358,21.4107046 20.7265625,21.40625 C25.7917739,21.3790392 30.8017237,20.3515614 35.46875,18.3828125 C36.1875,18.078125 36.796875,18.859375 36.0859375,19.3828125 Z" id="Path" fill="#FF9900"></path>
                    <path d="M37.8671875,17.3515625 C37.3203125,16.6484375 34.25,17.0234375 32.875,17.1875 C32.4609375,17.234375 32.390625,16.875 32.765625,16.609375 C35.2109375,14.890625 39.2265625,15.3828125 39.6875,15.9609375 C40.1484375,16.5390625 39.5625,20.5625 37.2734375,22.484375 C36.921875,22.78125 36.5859375,22.625 36.7421875,22.234375 C37.2578125,20.9375 38.4140625,18.0546875 37.8671875,17.3515625 Z" id="Path" fill="#FF9900"></path>
                    <path d="M11.7890625,9.2578125 C11.776655,9.64867453 11.8267655,10.0390092 11.9375,10.4140625 C12.0516313,10.7353107 12.1927605,11.0463176 12.359375,11.34375 C12.4161341,11.4327674 12.4484669,11.5351546 12.453125,11.640625 C12.4364309,11.801089 12.3433373,11.9436385 12.203125,12.0234375 L11.421875,12.5703125 C11.3207931,12.6413205 11.2015316,12.6819778 11.078125,12.6875 C10.9313729,12.6822453 10.7931159,12.6173492 10.6953125,12.5078125 C10.5138497,12.3282783 10.3563001,12.1260896 10.2265625,11.90625 C10.0963542,11.6875 9.96354167,11.4270833 9.828125,11.125 C8.90088906,12.2822695 7.49053805,12.9456247 6.0078125,12.921875 C5.0532707,12.9741834 4.11802963,12.6389614 3.4140625,11.9921875 C2.76145282,11.3283431 2.41591159,10.4220055 2.4609375,9.4921875 C2.41899021,8.47967313 2.83848598,7.50276517 3.6015625,6.8359375 C4.50616035,6.12357083 5.63936081,5.76527951 6.7890625,5.828125 C7.24921923,5.82946358 7.70870293,5.86340271 8.1640625,5.9296875 C8.64322917,5.99739583 9.140625,6.09114583 9.65625,6.2109375 L9.65625,5.2578125 C9.73211856,4.5108655 9.51034513,3.76413471 9.0390625,3.1796875 C8.43611419,2.71602578 7.67854256,2.50077481 6.921875,2.578125 C6.45061054,2.5805129 5.98125455,2.63819911 5.5234375,2.75 C5.0469985,2.86393016 4.57959027,3.01276965 4.125,3.1953125 C3.97804417,3.26284555 3.82665076,3.32027064 3.671875,3.3671875 L3.46875,3.3671875 C3.28645833,3.3671875 3.1953125,3.23177083 3.1953125,2.9609375 L3.1953125,2.34375 C3.18414043,2.18695046 3.21658844,2.03011844 3.2890625,1.890625 C3.38698071,1.77053535 3.51313804,1.6765884 3.65625,1.6171875 C4.17911373,1.36670075 4.7262332,1.17036601 5.2890625,1.03125 C5.95003878,0.861535925 6.63009355,0.777513714 7.3125,0.78125 C8.53990445,0.672469202 9.76078153,1.05136209 10.7109375,1.8359375 C11.4915234,2.70915774 11.8810476,3.86361704 11.7890625,5.03125 L11.7890625,9.2578125 Z M6.515625,11.234375 C6.97377522,11.2277065 7.42772508,11.1458899 7.859375,10.9921875 C8.3351934,10.8273783 8.75854921,10.5388492 9.0859375,10.15625 C9.28764155,9.93131324 9.43704932,9.66451365 9.5234375,9.375 C9.61338415,9.00694895 9.65539864,8.62881858 9.6484375,8.25 L9.6484375,7.703125 C9.25424766,7.60865257 8.85522416,7.53562866 8.453125,7.484375 C8.04892838,7.43266472 7.64186581,7.40657096 7.234375,7.40625 C6.55021572,7.35494266 5.86914004,7.53968789 5.3046875,7.9296875 C4.89180859,8.29393615 4.66508575,8.8248694 4.6875,9.375 C4.65016985,9.87941126 4.82258768,10.3768791 5.1640625,10.75 C5.53247507,11.084383 6.01868289,11.2586309 6.515625,11.234375 Z M16.9453125,12.640625 C16.7693046,12.6567153 16.5930417,12.6126495 16.4453125,12.515625 C16.3070093,12.3763344 16.2120333,12.1999504 16.171875,12.0078125 L13.1328125,1.9609375 C13.0738471,1.79151797 13.0345272,1.61588891 13.015625,1.4375 C13.0021924,1.34910668 13.0315878,1.25959254 13.0948089,1.19637144 C13.15803,1.13315034 13.2475442,1.10375489 13.3359375,1.1171875 L14.609375,1.1171875 C14.7879795,1.0992794 14.967303,1.14342058 15.1171875,1.2421875 C15.2464596,1.38572236 15.3354126,1.5609329 15.375,1.75 L17.5546875,10.34375 L19.578125,1.75 C19.6093634,1.56037511 19.6995746,1.38542007 19.8359375,1.25 C19.9925342,1.153368 20.1760129,1.10955219 20.359375,1.125 L21.40625,1.125 C21.5896121,1.10955219 21.7730908,1.153368 21.9296875,1.25 C22.0646508,1.3885561 22.1521821,1.56635409 22.1796875,1.7578125 L24.21875,10.4609375 L26.46875,1.7578125 C26.5102234,1.56781057 26.6019597,1.39243235 26.734375,1.25 C26.8842595,1.15123308 27.063583,1.1070919 27.2421875,1.125 L28.4453125,1.125 C28.5337058,1.11156739 28.62322,1.14096284 28.6864411,1.20418394 C28.7496622,1.26740504 28.7790576,1.35691918 28.765625,1.4453125 C28.772112,1.51286546 28.772112,1.58088454 28.765625,1.6484375 C28.7406728,1.75695163 28.7093689,1.86390662 28.671875,1.96875 L25.546875,12.015625 C25.5067167,12.2077629 25.4117407,12.3841469 25.2734375,12.5234375 C25.1257083,12.620462 24.9494454,12.6645278 24.7734375,12.6484375 L23.6328125,12.6484375 C23.4480932,12.6677939 23.2625201,12.6207082 23.109375,12.515625 C22.9753576,12.3702173 22.888241,12.1878168 22.859375,11.9921875 L20.8359375,3.625 L18.8359375,11.984375 C18.8070715,12.1800043 18.7199549,12.3624048 18.5859375,12.5078125 C18.4327924,12.6128957 18.2472193,12.6599814 18.0625,12.640625 L16.9453125,12.640625 Z M33.6328125,12.984375 C32.9596809,12.9854858 32.2886384,12.9094693 31.6328125,12.7578125 C31.1112119,12.6528092 30.6064986,12.4766853 30.1328125,12.234375 C29.8415068,12.1110117 29.6533499,11.8241495 29.6562169,11.5078125 L29.6562169,10.8515625 C29.6562169,10.5807292 29.7552083,10.4453125 29.953125,10.4453125 C30.0359857,10.4465434 30.1179764,10.4624126 30.1953125,10.4921875 L30.5234375,10.625 C30.9819832,10.8279024 31.4614173,10.9798542 31.953125,11.078125 C32.4672098,11.1837327 32.9908077,11.2360925 33.515625,11.234375 C34.1763363,11.2735298 34.8346076,11.1245384 35.4140625,10.8046875 C35.8447481,10.548764 36.1021541,10.0788485 36.0859375,9.578125 C36.094928,9.24113572 35.9682706,8.91464121 35.734375,8.671875 C35.340027,8.34140494 34.8748886,8.10616256 34.375,7.984375 L32.4921875,7.390625 C31.6993632,7.17033187 30.993146,6.71224509 30.46875,6.078125 C30.0499577,5.53970439 29.8218707,4.87742783 29.8203125,4.1953125 C29.8094168,3.69112273 29.930617,3.19285507 30.171875,2.75 C30.4053314,2.33341675 30.7217463,1.96914068 31.1015625,1.6796875 C31.4997769,1.376903 31.9498379,1.14922505 32.4296875,1.0078125 C32.9603419,0.854684772 33.5102011,0.778388521 34.0625,0.781172406 C34.3550286,0.78099234 34.64728,0.799258052 34.9375,0.8359375 C35.234375,0.872395833 35.515625,0.921875 35.78125,0.984375 C36.046875,1.046875 36.2942708,1.11458333 36.5234375,1.1875 C36.7120827,1.24666622 36.8950947,1.32248547 37.0703125,1.4140625 C37.218275,1.49383204 37.3485079,1.60280247 37.453125,1.734375 C37.5357254,1.86202005 37.5766715,2.01215579 37.5703125,2.1640625 L37.5703125,2.78125 C37.5703125,3.05208333 37.4713542,3.1875 37.2734375,3.1875 C37.0982978,3.16793948 36.9285512,3.11489365 36.7734375,3.03125 C35.9851092,2.68880412 35.1328352,2.51834932 34.2734375,2.53125 C33.6756793,2.5001761 33.0802566,2.62680445 32.546875,2.8984375 C32.1393796,3.13645045 31.9006626,3.5836671 31.9296875,4.0546875 C31.9218112,4.40217015 32.0607972,4.73687114 32.3125,4.9765625 C32.733615,5.31339689 33.2206446,5.55824237 33.7421875,5.6953125 L35.5859375,6.25 C36.3666933,6.45292727 37.0670718,6.88896056 37.59375,7.5 C38.0068106,8.03613715 38.2220662,8.69846226 38.203125,9.375 C38.2100107,9.89778164 38.0921701,10.4146731 37.859375,10.8828125 C37.6318642,11.3300292 37.3092071,11.7220175 36.9140625,12.03125 C36.4833552,12.3639019 35.9926647,12.6105733 35.46875,12.7578125 C34.8708484,12.9212192 34.2525021,12.9975257 33.6328125,12.984375 Z" id="Shape" fill="#FFFFFF" fill-rule="nonzero"></path>
                    <path d="M36.0859375,19.3828125 C31.8125,22.5390625 25.609375,24.21875 20.3125,24.21875 C13.165969,24.2658122 6.26032062,21.6378758 0.953125,16.8515625 C0.5546875,16.4921875 0.90625,16 1.390625,16.2734375 C7.27807556,19.6412217 13.9439358,21.4107046 20.7265625,21.40625 C25.7917739,21.3790392 30.8017237,20.3515614 35.46875,18.3828125 C36.1875,18.078125 36.796875,18.859375 36.0859375,19.3828125 Z" id="Path" fill="#FF9900"></path>
                    <path d="M37.8671875,17.3515625 C37.3203125,16.6484375 34.25,17.0234375 32.875,17.1875 C32.4609375,17.234375 32.390625,16.875 32.765625,16.609375 C35.2109375,14.890625 39.2265625,15.3828125 39.6875,15.9609375 C40.1484375,16.5390625 39.5625,20.5625 37.2734375,22.484375 C36.921875,22.78125 36.5859375,22.625 36.7421875,22.234375 C37.2578125,20.9375 38.4140625,18.0546875 37.8671875,17.3515625 Z" id="Path" fill="#FF9900"></path>
                </g>
            </g>
        </g>
    </g>
</svg>