<?xml version="1.0" encoding="UTF-8"?>
<svg width="16px" height="16px" viewBox="0 0 16 16" version="1.1" xmlns="http://www.w3.org/2000/svg" xmlns:xlink="http://www.w3.org/1999/xlink">
    <title>Icon</title>
    <defs>
        <path d="M9.13465391,0.0820534511 C9.58587169,0.147181127 9.93592312,0.509244975 9.98579522,0.96240264 C10.0237858,1.30759977 10.2490073,1.60372726 10.5715199,1.73252944 C10.8940324,1.86133162 11.2612854,1.80182134 11.52662,1.57776347 C11.881447,1.27813497 12.3958605,1.26222516 12.7685255,1.53935374 C13.3943869,2.00476932 13.9488242,2.55920663 14.4142398,3.18506803 C14.689272,3.55491398 14.6759015,4.06483377 14.3818651,4.41975822 C14.1571921,4.69095569 14.1029574,5.06498846 14.2413496,5.38883038 C14.3793957,5.73431811 14.6756871,5.95979772 15.0211235,5.99779091 C15.4743097,6.04763506 15.8364088,6.39769688 15.9015401,6.84893963 C16.0109447,7.60691694 16.0109447,8.3766766 15.9015401,9.13465391 C15.835352,9.59321853 15.4628397,9.94626733 15.0013861,9.98777556 C14.6537193,10.0190486 14.3520125,10.2404026 14.2178268,10.5626515 C14.0836411,10.8849005 14.1390769,11.2549701 14.3617985,11.5237549 C14.6558968,11.8786787 14.6692953,12.3886483 14.3942398,12.7585255 C13.9288242,13.3843869 13.3743869,13.9388242 12.7485255,14.4042398 C12.380328,14.6780462 11.8730357,14.6661424 11.5180864,14.3753671 C11.249932,14.1556946 10.882641,14.1014328 10.5624217,14.234182 C10.2422023,14.3669312 10.0210319,14.6651437 9.98695235,15.0101094 C9.94172403,15.4679266 9.58998119,15.8358193 9.13465391,15.9015401 C8.3766766,16.0109447 7.60691694,16.0109447 6.84893963,15.9015401 C6.39037501,15.835352 6.03732621,15.4628397 5.99581798,15.0013861 C5.96454499,14.6537193 5.74319096,14.3520125 5.42094199,14.2178268 C5.09869303,14.0836411 4.72862346,14.1390769 4.4598386,14.3617985 C4.10491485,14.6558968 3.59494524,14.6692953 3.22506803,14.3942398 C2.59920663,13.9288242 2.04476932,13.3743869 1.57935374,12.7485255 C1.30554738,12.380328 1.31745115,11.8730357 1.60822639,11.5180864 C1.82789895,11.249932 1.8821607,10.882641 1.74941154,10.5624217 C1.61666238,10.2422023 1.31844986,10.0210319 0.973484126,9.98695235 C0.515666958,9.94172403 0.147774283,9.58998119 0.0820534511,9.13465391 C-0.0273511504,8.3766766 -0.0273511504,7.60691694 0.0820534511,6.84893963 C0.147942937,6.39244388 0.517500166,6.04022698 0.976633366,5.9963351 C1.32442057,5.9630876 1.62507624,5.73969622 1.75728105,5.41630292 C1.88948586,5.09290962 1.83142628,4.72287364 1.60653027,4.45551036 C1.30804165,4.10065791 1.29265189,3.58715916 1.56935374,3.21506803 C2.03476932,2.58920663 2.58920663,2.03476932 3.21506803,1.56935374 C3.58715916,1.29265189 4.10065791,1.30804165 4.45551036,1.60653027 C4.72287364,1.83142628 5.09290962,1.88948586 5.41630292,1.75728105 C5.73969622,1.62507624 5.9630876,1.32442057 5.9963351,0.976633366 C6.04022698,0.517500166 6.39244388,0.147942937 6.84893963,0.0820534511 C7.60691694,-0.0273511504 8.3766766,-0.0273511504 9.13465391,0.0820534511 Z M7.78041541,2.00372464 C7.48563161,2.72159665 6.91306986,3.3060632 6.17311522,3.60856037 C5.43490783,3.91034327 4.61899368,3.8951455 3.90692756,3.59145346 C3.79789499,3.69266405 3.69266405,3.79789499 3.59145346,3.90692756 C3.8951455,4.61899368 3.91034327,5.43490783 3.60856037,6.17311522 C3.3060632,6.91306986 2.72159665,7.48563161 2.00372464,7.78041541 C1.99873548,7.92194414 1.99875856,8.06360567 2.00379388,8.20513317 C2.71445557,8.49884429 3.29371718,9.06506006 3.59694621,9.7965133 C3.90052498,10.5288102 3.89140461,11.3398152 3.59599312,12.0507757 C3.69991256,12.1630275 3.80808677,12.2712641 3.92027796,12.3752477 C4.63509942,12.0748475 5.45244977,12.0644823 6.18975918,12.3715007 C6.92539276,12.6778213 7.49291775,13.2632614 7.78387447,13.9799898 C7.92425232,13.9848574 8.06475867,13.984794 8.20513317,13.9797997 C8.49884429,13.269138 9.06506006,12.6898764 9.7965133,12.3866473 C10.5288102,12.0830686 11.3398152,12.0921889 12.0507757,12.3876004 C12.1630275,12.283681 12.2712641,12.1755068 12.3752477,12.0633156 C12.0748475,11.3484941 12.0644823,10.5311438 12.3715007,9.79383436 C12.6778213,9.05820078 13.2632614,8.49067579 13.9799898,8.19971907 C13.9849359,8.05707501 13.9847906,7.91429827 13.9795539,7.77166202 C13.2696191,7.47161013 12.6941827,6.89896805 12.3974478,6.16347529 C12.084664,5.42306383 12.0929495,4.59990622 12.395288,3.88032135 C12.29338,3.7703675 12.1873871,3.66427192 12.077533,3.56225842 C11.3720224,3.8642987 10.5638289,3.88305697 9.82974567,3.58988536 C9.08963699,3.29430737 8.51334223,2.71699493 8.21197339,2.00404115 C8.06817024,1.9987606 7.92422427,1.9986551 7.78041541,2.00372464 Z M8,5 C9.65685425,5 11,6.34314575 11,8 C11,9.65685425 9.65685425,11 8,11 C6.34314575,11 5,9.65685425 5,8 C5,6.34314575 6.34314575,5 8,5 Z M8,7 C7.44771525,7 7,7.44771525 7,8 C7,8.55228475 7.44771525,9 8,9 C8.55228475,9 9,8.55228475 9,8 C9,7.44771525 8.55228475,7 8,7 Z" id="path-1"></path>
    </defs>
    <g id="Symbols" stroke="none" stroke-width="1" fill="none" fill-rule="evenodd">
        <g id="Icon/Action/Settings">
            <mask id="mask-2" fill="white">
                <use xlink:href="#path-1"></use>
            </mask>
            <use id="Icon" fill="#16191F" xlink:href="#path-1"></use>
        </g>
    </g>
</svg>